<svg width="16" height="16" viewBox="0 0 16 16" fill="none" xmlns="http://www.w3.org/2000/svg">
<path d="M7.62207 10.6257C7.72648 10.7295 7.86772 10.7877 8.01494 10.7877C8.16217 10.7877 8.30341 10.7295 8.40782 10.6257L12.866 6.1675C12.9573 6.06089 13.005 5.92376 12.9996 5.78351C12.9942 5.64325 12.936 5.51021 12.8368 5.41096C12.7375 5.31172 12.6045 5.25358 12.4642 5.24816C12.324 5.24274 12.1869 5.29045 12.0802 5.38174L8.01773 9.44426L3.95522 5.37617C3.85028 5.27123 3.70795 5.21228 3.55955 5.21228C3.41115 5.21228 3.26883 5.27123 3.16389 5.37617C3.05895 5.48111 3 5.62343 3 5.77183C3 5.92024 3.05895 6.06256 3.16389 6.1675L7.62207 10.6257Z" fill="white"/>
</svg>
