<svg width="24" height="24" viewBox="0 0 24 24" fill="none" xmlns="http://www.w3.org/2000/svg">
<path d="M7.5 4.5C5.4378 4.5 3.75 6.18782 3.75 8.25C3.75 10.3122 5.4378 12 7.5 12C9.5622 12 11.25 10.3122 11.25 8.25C11.25 6.18782 9.5622 4.5 7.5 4.5ZM7.5 6C8.75152 6 9.75 6.99848 9.75 8.25C9.75 9.50152 8.75152 10.5 7.5 10.5C6.24848 10.5 5.25 9.50152 5.25 8.25C5.25 6.99848 6.24848 6 7.5 6Z" fill="#878893"/>
<path d="M16.5 4.5C14.4378 4.5 12.75 6.18782 12.75 8.25C12.75 10.3122 14.4378 12 16.5 12C18.5622 12 20.25 10.3122 20.25 8.25C20.25 6.18782 18.5622 4.5 16.5 4.5ZM16.5 6C17.7515 6 18.75 6.99848 18.75 8.25C18.75 9.50152 17.7515 10.5 16.5 10.5C15.2485 10.5 14.25 9.50152 14.25 8.25C14.25 6.99848 15.2485 6 16.5 6Z" fill="#878893"/>
<path d="M5.25 13.5C3.18547 13.5 1.5 15.1855 1.5 17.25V18.75C1.50002 18.9489 1.57904 19.1397 1.71969 19.2803C1.86034 19.421 2.05109 19.5 2.25 19.5H12.75C12.9489 19.5 13.1397 19.421 13.2803 19.2803C13.421 19.1397 13.5 18.9489 13.5 18.75V17.25C13.5 15.1855 11.8145 13.5 9.75 13.5H5.25ZM5.25 15H9.75C11.0095 15 12 15.9905 12 17.25V18H3V17.25C3 15.9905 3.99053 15 5.25 15Z" fill="#878893"/>
<path d="M14.937 13.5C14.5228 13.5 14.187 13.8358 14.187 14.25C14.187 14.6642 14.5228 15 14.937 15H18.75C20.0095 15 21 15.9905 21 17.25V18H15.75C15.5511 18 15.3603 18.079 15.2197 18.2197C15.079 18.3603 15 18.5511 15 18.75C15 18.9489 15.079 19.1397 15.2197 19.2803C15.3603 19.421 15.5511 19.5 15.75 19.5H21.75C22.1642 19.5 22.4999 19.1642 22.5 18.75V17.25C22.5 15.1855 20.8145 13.5 18.75 13.5H14.937Z" fill="#878893"/>
</svg>
