<svg width="16" height="17" viewBox="0 0 16 17" fill="none" xmlns="http://www.w3.org/2000/svg">
<path d="M11.7244 10.6861C11.9655 10.7364 12.2168 10.6913 12.4254 10.5603C12.6339 10.4292 12.7836 10.2224 12.8428 9.98323V9.98264C12.8728 9.86131 12.8786 9.73525 12.8599 9.61166C12.8412 9.48807 12.7983 9.36939 12.7337 9.26239C12.6691 9.15539 12.584 9.06218 12.4833 8.98809C12.3827 8.91399 12.2684 8.86046 12.147 8.83057L9.4421 8.16084L6.39433 4.133L5.07969 4L6.81224 7.89484L4.18238 7.62943L2.81573 5.36606L2 5.5493L2.73298 8.81224L11.7244 10.6861ZM2.35999 12.2844H13V13.4667H2.35999V12.2844Z" fill="white"/>
</svg>
