<svg width="121" height="29" viewBox="0 0 121 29" fill="none" xmlns="http://www.w3.org/2000/svg">
<path d="M42.5882 3.47083C42.8262 3.47083 43.0191 3.66374 43.0191 3.90172V6.67801C43.0191 6.91599 42.8262 7.10891 42.5882 7.10891H41.115C39.3322 7.10891 37.887 8.55414 37.887 10.3369V21.6209C37.887 21.8589 37.694 22.0518 37.4561 22.0518H36.3305C35.1406 22.0518 34.176 21.0872 34.176 19.8973V7.10891H31.2247C30.0348 7.10891 29.0702 6.14431 29.0702 4.95442V3.90172C29.0702 3.66375 29.2631 3.47083 29.5011 3.47083H42.5882Z" fill="#282A35"/>
<path d="M48.3573 10.2611C48.9012 9.33112 49.6206 8.60297 50.5154 8.0766C51.2926 7.60421 52.1491 7.33695 53.0851 7.27483C53.3226 7.25907 53.5157 7.45364 53.5157 7.69162V10.8039C53.5157 11.0419 53.3228 11.2348 53.0848 11.2348H52.4367C49.7171 11.2348 48.3573 12.4981 48.3573 15.0247V21.6209C48.3573 21.8589 48.1644 22.0518 47.9264 22.0518H46.8008C45.6109 22.0518 44.6463 21.0872 44.6463 19.8973V7.90217C44.6463 7.66419 44.8393 7.47127 45.0772 7.47127H47.9264C48.1644 7.47127 48.3573 7.66419 48.3573 7.90217V10.2611Z" fill="#282A35"/>
<path d="M58.4341 7.47127C58.6721 7.47127 58.865 7.66419 58.865 7.90217V22.0518H57.3086C56.1187 22.0518 55.1541 21.0872 55.1541 19.8973V7.90217C55.1541 7.66419 55.347 7.47127 55.585 7.47127H58.4341Z" fill="#282A35"/>
<path d="M70.518 7.28704C71.7462 7.28704 72.8516 7.58532 73.8342 8.18187C74.8167 8.77843 75.58 9.64695 76.1239 10.7874C76.6854 11.9104 76.9661 13.2351 76.9661 14.7616C76.9661 16.288 76.6854 17.6215 76.1239 18.762C75.58 19.8849 74.8167 20.7447 73.8342 21.3412C72.8516 21.9378 71.7462 22.2361 70.518 22.2361C69.2898 22.2361 68.2371 21.9466 67.3598 21.3675C66.5 20.771 65.8859 19.9814 65.5175 18.9989V29H63.961C62.7711 29 61.8065 28.0354 61.8065 26.8455V7.90217C61.8065 7.66419 61.9994 7.47127 62.2374 7.47127H65.0866C65.3245 7.47127 65.5175 7.66419 65.5175 7.90217V10.4979C65.8859 9.51536 66.5 8.73457 67.3598 8.15556C68.2371 7.57654 69.2898 7.28704 70.518 7.28704ZM69.36 10.5242C68.2371 10.5242 67.3071 10.9102 66.5702 11.6823C65.8508 12.4367 65.4911 13.4632 65.4911 14.7616C65.4911 16.0424 65.8508 17.0688 66.5702 17.8408C67.3071 18.5953 68.2371 18.9725 69.36 18.9725C70.518 18.9725 71.4479 18.6041 72.1498 17.8672C72.8516 17.1127 73.2025 16.0775 73.2025 14.7616C73.2025 13.4456 72.8516 12.4104 72.1498 11.6559C71.4479 10.9015 70.518 10.5242 69.36 10.5242Z" fill="#282A35"/>
<path d="M86.967 18.8673V22.0518H85.0194C83.3876 22.0518 82.1331 21.6571 81.2558 20.8675C80.3961 20.0779 79.9662 18.762 79.9662 16.9197V10.6032C78.847 10.6032 77.9397 9.69588 77.9397 8.57665V7.47127H79.9662V4.2965C79.9662 4.05853 80.1591 3.86561 80.3971 3.86561H83.2463C83.4842 3.86561 83.6772 4.05853 83.6772 4.2965V7.47127H86.5098C86.7478 7.47127 86.9407 7.66419 86.9407 7.90217V10.1723C86.9407 10.4103 86.7478 10.6032 86.5098 10.6032H85.9034C84.6739 10.6032 83.6772 11.5999 83.6772 12.8294V16.9723C83.6772 17.6742 83.8175 18.1654 84.0983 18.4462C84.379 18.7269 84.8527 18.8673 85.5195 18.8673H86.967Z" fill="#282A35"/>
<path d="M92.5018 7.47127C92.7398 7.47127 92.9327 7.66419 92.9327 7.90217V22.0518H91.3762C90.1864 22.0518 89.2218 21.0872 89.2218 19.8973V7.90217C89.2218 7.66419 89.4147 7.47127 89.6527 7.47127H92.5018Z" fill="#282A35"/>
<path d="M114.429 7.26072C116.201 7.26072 117.596 7.81341 118.614 8.9188C119.649 10.0066 120.166 11.5594 120.166 13.5772V21.6209C120.166 21.8589 119.973 22.0518 119.735 22.0518H116.913C116.675 22.0518 116.482 21.8589 116.482 21.6209V13.9983C116.482 12.8754 116.192 12.0156 115.613 11.4191C115.052 10.805 114.271 10.4979 113.271 10.4979C112.236 10.4979 111.411 10.8225 110.797 11.4717C110.183 12.1209 109.876 13.0684 109.876 14.3141V21.6209C109.876 21.8589 109.683 22.0518 109.445 22.0518H106.622C106.384 22.0518 106.191 21.8589 106.191 21.6209V13.9983C106.191 12.8754 105.902 12.0156 105.323 11.4191C104.761 10.805 103.98 10.4979 102.98 10.4979C101.945 10.4979 101.12 10.8225 100.506 11.4717C99.8922 12.1209 99.5852 13.0684 99.5852 14.3141V22.0518H98.0287C96.8388 22.0518 95.8742 21.0872 95.8742 19.8973V7.90217C95.8742 7.66419 96.0671 7.47127 96.3051 7.47127H99.1543C99.3922 7.47127 99.5852 7.66419 99.5852 7.90217V10.2347C99.9712 9.28726 100.576 8.55911 101.401 8.05028C102.243 7.52391 103.217 7.26072 104.323 7.26072C105.498 7.26072 106.516 7.54145 107.375 8.10292C108.253 8.66438 108.911 9.47149 109.349 10.5242C109.806 9.52413 110.481 8.73457 111.376 8.15556C112.288 7.559 113.306 7.26072 114.429 7.26072Z" fill="#282A35"/>
<circle cx="90.9284" cy="3.58376" r="1.89858" fill="#FF8F27"/>
<circle cx="56.7539" cy="3.58376" r="1.89858" fill="#FF8F27"/>
<path d="M0.384033 11.0166C0.384033 5.91747 4.51769 1.78381 9.61682 1.78381H12.5826C17.6817 1.78381 21.8154 5.91747 21.8154 11.0166V22.3758C21.8154 22.8394 21.4396 23.2152 20.976 23.2152H9.61682C4.51769 23.2152 0.384033 19.0815 0.384033 13.9824V11.0166Z" fill="url(#paint0_linear_113_485)"/>
<g filter="url(#filter0_d_113_485)">
<path fill-rule="evenodd" clip-rule="evenodd" d="M3.89491 1C3.51485 1 3.20691 1.30794 3.20691 1.688V5.44536C3.20691 6.53666 4.09158 7.42134 5.18288 7.42134H9.39891V19.1173C9.39891 20.7639 10.7337 22.0987 12.3802 22.0987H15.1322C15.5123 22.0987 15.8202 21.7907 15.8202 21.4107V12.5611C15.8202 9.72247 18.1214 7.42134 20.96 7.42134H21.7829C22.163 7.42134 22.4709 7.11339 22.4709 6.73334V1.688C22.4709 1.30794 22.163 1 21.7829 1H3.89491Z" fill="white"/>
</g>
<path d="M12.0226 5.79752L12.2482 5.7085C12.3945 5.65077 12.5598 5.72292 12.617 5.86943L13.1762 7.30285C13.2317 7.44515 13.1652 7.60616 13.0267 7.67053C12.573 7.88136 11.6034 8.35757 11.004 8.838C10.3107 9.39366 9.8686 10.1166 9.62758 10.6009C9.45682 10.944 9.39863 11.3267 9.39863 11.71L9.39863 13.4247L3.20659 11.0169L1.25813 6.31625L3.20715 3.91855L3.20691 4.55981C3.20671 5.10633 3.37469 5.64845 3.82719 5.95492C4.29781 6.27365 5.07768 6.65534 6.30263 6.88867C8.71063 7.34733 12.0226 5.79752 12.0226 5.79752Z" fill="#8740E2"/>
<path d="M11.2998 5.89624C11.2998 5.89624 12.4393 5.42251 13.1562 5.08971C13.8762 4.75553 14.9781 4.18848 14.9781 4.18848" stroke="white" stroke-width="0.57108"/>
<circle cx="18.7598" cy="20.931" r="1.16895" fill="#FF8F27"/>
<path d="M18.1489 4.62324C18.2491 4.97668 18.2007 5.34889 17.8254 5.73988C17.45 6.13086 16.9884 6.42261 16.4406 6.61513L14.6998 7.22687L13.5643 11.2116C13.5461 11.3152 13.4791 11.3812 13.3634 11.4097L12.9749 11.5131C12.9267 11.526 12.8729 11.5186 12.8135 11.4909C12.7937 11.4817 12.7775 11.4712 12.765 11.4594C12.6975 11.4102 12.6637 11.3472 12.6634 11.2704L12.2211 8.5036C12.195 8.34033 12.0254 8.24227 11.8709 8.30104L10.8655 8.68336L10.478 6.62446L10.807 6.26156L11.0531 6.16514C11.2044 6.10588 11.2652 5.92421 11.1801 5.78581L9.69353 3.36765C9.64235 3.29658 9.62741 3.21884 9.64873 3.13443C9.675 3.05233 9.72779 2.99734 9.80708 2.96948L10.2217 2.79362C10.3203 2.763 10.4036 2.77827 10.4715 2.83944L13.8076 4.81995L15.5376 4.21201C16.0854 4.0195 16.633 3.95661 17.1804 4.02336C17.7277 4.09011 17.9911 4.29007 18.1489 4.62324Z" fill="#7B33D7"/>
<path d="M9.80872 6.48413C9.80872 6.48413 11.5127 6.04093 12.5285 5.54782C13.1781 5.23242 14.2673 4.52235 14.2673 4.52235" stroke="white" stroke-width="0.222622"/>
<defs>
<filter id="filter0_d_113_485" x="1.11295" y="0.0481995" width="24.9748" height="26.8094" filterUnits="userSpaceOnUse" color-interpolation-filters="sRGB">
<feFlood flood-opacity="0" result="BackgroundImageFix"/>
<feColorMatrix in="SourceAlpha" type="matrix" values="0 0 0 0 0 0 0 0 0 0 0 0 0 0 0 0 0 0 127 0" result="hardAlpha"/>
<feOffset dx="0.76144" dy="1.9036"/>
<feGaussianBlur stdDeviation="1.4277"/>
<feComposite in2="hardAlpha" operator="out"/>
<feColorMatrix type="matrix" values="0 0 0 0 0 0 0 0 0 0 0 0 0 0 0 0 0 0 0.25 0"/>
<feBlend mode="normal" in2="BackgroundImageFix" result="effect1_dropShadow_113_485"/>
<feBlend mode="normal" in="SourceGraphic" in2="effect1_dropShadow_113_485" result="shape"/>
</filter>
<linearGradient id="paint0_linear_113_485" x1="21.8154" y1="1.78381" x2="-2.6569" y2="23.2152" gradientUnits="userSpaceOnUse">
<stop offset="0.0436716" stop-color="#7B33D7"/>
<stop offset="1" stop-color="#944EEE"/>
</linearGradient>
</defs>
</svg>
