<svg width="5" height="16" viewBox="0 0 5 16" fill="none" xmlns="http://www.w3.org/2000/svg">
<path d="M4.01334 0.585787C4.79439 1.36684 4.79439 2.63317 4.01334 3.41422C3.23229 4.19527 1.96596 4.19527 1.18491 3.41422C0.403859 2.63317 0.403859 1.36684 1.18491 0.585787C1.96596 -0.195262 3.23229 -0.195262 4.01334 0.585787Z" fill="#282A35"/>
<path d="M4.01334 6.58579C4.79439 7.36684 4.79439 8.63317 4.01334 9.41422C3.23229 10.1953 1.96596 10.1953 1.18491 9.41422C0.403859 8.63317 0.403859 7.36684 1.18491 6.58579C1.96596 5.80474 3.23229 5.80474 4.01334 6.58579Z" fill="#282A35"/>
<path d="M4.01334 12.5857C4.79439 13.3668 4.79439 14.6331 4.01334 15.4142C3.23229 16.1952 1.96596 16.1952 1.18491 15.4142C0.403859 14.6331 0.403859 13.3668 1.18491 12.5857C1.96596 11.8047 3.23229 11.8047 4.01334 12.5857Z" fill="#282A35"/>
</svg>
