<svg width="11" height="12" viewBox="0 0 11 12" fill="none" xmlns="http://www.w3.org/2000/svg">
<path d="M6.875 6C6.875 6.75939 6.25939 7.375 5.5 7.375C4.74061 7.375 4.125 6.75939 4.125 6C4.125 5.24061 4.74061 4.625 5.5 4.625C6.25939 4.625 6.875 5.24061 6.875 6Z" fill="white"/>
<path d="M2.75 6C2.75 6.75939 2.13439 7.375 1.375 7.375C0.615609 7.375 0 6.75939 0 6C0 5.24061 0.615609 4.625 1.375 4.625C2.13439 4.625 2.75 5.24061 2.75 6Z" fill="white"/>
<path d="M11 6C11 6.75939 10.3844 7.375 9.625 7.375C8.86559 7.375 8.25 6.75939 8.25 6C8.25 5.24061 8.86559 4.625 9.625 4.625C10.3844 4.625 11 5.24061 11 6Z" fill="white"/>
</svg>
