<svg width="24" height="24" viewBox="0 0 24 24" fill="none" xmlns="http://www.w3.org/2000/svg">
<path d="M16.7426 17.9677H7.25747C7.02432 17.9773 6.79157 17.9408 6.57255 17.8604C6.35352 17.7799 6.15252 17.657 5.98106 17.4987C5.8096 17.3404 5.67104 17.1499 5.57332 16.938C5.47559 16.7261 5.42063 16.497 5.41156 16.2638C5.42539 15.5867 5.63986 14.9288 6.02781 14.3736C6.66734 13.3571 6.96856 12.1641 6.88828 10.9658C6.88828 7.05646 8.70579 4.90442 12 4.90442C15.2943 4.90442 17.1118 7.05646 17.1118 10.9675C17.0315 12.1658 17.3327 13.3588 17.9722 14.3753C18.3599 14.93 18.5743 15.5872 18.5885 16.2638C18.5794 16.497 18.5245 16.7261 18.4267 16.938C18.329 17.1499 18.1904 17.3404 18.019 17.4987C17.8475 17.657 17.6465 17.7799 17.4275 17.8604C17.2085 17.9408 16.9757 17.9773 16.7426 17.9677ZM12 6.04036C9.3618 6.04036 8.02423 7.69827 8.02423 10.9675C8.10285 12.3685 7.74743 13.7597 7.00642 14.9513C6.72357 15.332 6.56348 15.7898 6.5475 16.2638C6.5475 16.7313 7.11547 16.8318 7.25747 16.8318H16.7426C16.8834 16.8318 17.4525 16.7313 17.4525 16.2638C17.4367 15.7896 17.2766 15.3315 16.9936 14.9507C16.2527 13.7593 15.8973 12.3683 15.9758 10.9675C15.9758 7.69827 14.6382 6.04036 12 6.04036Z" fill="#282A35"/>
<path d="M11.9996 20C11.4498 19.9992 10.9227 19.7804 10.534 19.3916C10.1452 19.0027 9.92657 18.4756 9.92597 17.9257C9.92575 17.7961 9.93831 17.6667 9.96345 17.5395C9.97815 17.4664 10.0071 17.3969 10.0487 17.3349C10.0902 17.273 10.1436 17.2198 10.2057 17.1785C10.2678 17.1372 10.3374 17.1085 10.4106 17.0941C10.4838 17.0797 10.5591 17.0798 10.6322 17.0945C10.7054 17.1092 10.7749 17.1382 10.8368 17.1797C10.8988 17.2213 10.9519 17.2746 10.9933 17.3367C11.0346 17.3988 11.0633 17.4685 11.0777 17.5417C11.0921 17.6148 11.0919 17.6902 11.0772 17.7633C11.0667 17.8168 11.0615 17.8712 11.0619 17.9257C11.0575 18.0515 11.0785 18.177 11.1236 18.2945C11.1688 18.412 11.2371 18.5192 11.3246 18.6098C11.412 18.7003 11.5168 18.7724 11.6327 18.8215C11.7486 18.8707 11.8732 18.8961 11.9991 18.8961C12.125 18.8961 12.2496 18.8707 12.3654 18.8215C12.4813 18.7724 12.5861 18.7003 12.6736 18.6098C12.761 18.5192 12.8293 18.412 12.8745 18.2945C12.9196 18.177 12.9406 18.0515 12.9362 17.9257C12.9366 17.8712 12.9315 17.8168 12.9209 17.7633C12.9062 17.6902 12.906 17.6148 12.9205 17.5417C12.9349 17.4685 12.9635 17.3988 13.0049 17.3367C13.0462 17.2746 13.0993 17.2213 13.1613 17.1797C13.2232 17.1382 13.2927 17.1092 13.3659 17.0945C13.439 17.0798 13.5143 17.0797 13.5875 17.0941C13.6607 17.1085 13.7303 17.1372 13.7924 17.1785C13.8545 17.2198 13.9079 17.273 13.9495 17.3349C13.991 17.3969 14.02 17.4664 14.0347 17.5395C14.0598 17.6667 14.0724 17.7961 14.0722 17.9257C14.0716 18.4754 13.8531 19.0024 13.4646 19.3912C13.0761 19.78 12.5493 19.9989 11.9996 20Z" fill="#282A35"/>
<circle cx="14.9085" cy="7.16565" r="3.16565" fill="#FF008A"/>
</svg>
