<svg width="24" height="24" viewBox="0 0 24 24" fill="none" xmlns="http://www.w3.org/2000/svg">
<path d="M11.9928 8.81925C11.3649 8.81925 10.7511 9.00549 10.229 9.35442C9.7069 9.70334 9.29998 10.1993 9.05969 10.7795C8.81941 11.3598 8.75654 11.9982 8.87903 12.6142C9.00153 13.2302 9.3039 13.796 9.74789 14.2401C10.1919 14.6842 10.7576 14.9866 11.3734 15.1092C11.9893 15.2317 12.6276 15.1688 13.2077 14.9285C13.7878 14.6881 14.2837 14.2811 14.6325 13.7589C14.9814 13.2367 15.1676 12.6228 15.1676 11.9947C15.1676 11.1525 14.8331 10.3448 14.2377 9.74933C13.6423 9.15381 12.8348 8.81925 11.9928 8.81925ZM11.9928 14.156C11.5654 14.156 11.1477 14.0293 10.7923 13.7918C10.437 13.5543 10.16 13.2168 9.99646 12.8218C9.83291 12.4269 9.79012 11.9923 9.8735 11.5731C9.95687 11.1538 10.1627 10.7687 10.4649 10.4664C10.7671 10.1642 11.1521 9.95832 11.5712 9.87493C11.9904 9.79153 12.4249 9.83433 12.8197 9.99792C13.2145 10.1615 13.552 10.4385 13.7894 10.7939C14.0269 11.1494 14.1536 11.5672 14.1536 11.9947C14.1536 12.5679 13.926 13.1177 13.5207 13.523C13.1155 13.9283 12.5659 14.156 11.9928 14.156Z" fill="#282A35" stroke="#282A35" stroke-width="0.12468"/>
<mask id="path-2-outside-1_113_510" maskUnits="userSpaceOnUse" x="3" y="3" width="18" height="18" fill="black">
<rect fill="white" x="3" y="3" width="18" height="18"/>
<path d="M19.2049 12.8843C19.0692 12.7791 18.9594 12.6443 18.8838 12.4901C18.8082 12.3359 18.769 12.1665 18.769 11.9948C18.769 11.8231 18.8082 11.6537 18.8838 11.4995C18.9594 11.3453 19.0692 11.2105 19.2049 11.1054C19.5542 10.8355 19.8049 10.4581 19.9184 10.0315C20.0319 9.60493 20.0019 9.15283 19.8329 8.74502C19.6639 8.33721 19.3655 7.99637 18.9836 7.77511C18.6017 7.55385 18.1576 7.46449 17.7199 7.52081C17.5502 7.54168 17.378 7.52361 17.2164 7.46797C17.0548 7.41233 16.9079 7.32057 16.7871 7.19967C16.6662 7.07877 16.5745 6.93191 16.5188 6.77025C16.4632 6.60858 16.4451 6.43636 16.466 6.26666C16.5223 5.82883 16.433 5.38463 16.2117 5.00265C15.9905 4.62066 15.6498 4.32213 15.2421 4.15313C14.8343 3.98414 14.3823 3.95409 13.9558 4.06761C13.5294 4.18113 13.1521 4.43192 12.8823 4.78126C12.7729 4.91051 12.6367 5.01438 12.4831 5.08562C12.3295 5.15686 12.1623 5.19377 11.993 5.19377C11.8237 5.19377 11.6565 5.15686 11.5029 5.08562C11.3493 5.01438 11.2131 4.91051 11.1037 4.78126C10.8339 4.43192 10.4566 4.18113 10.0302 4.06761C9.60366 3.95409 9.15166 3.98414 8.74394 4.15313C8.33623 4.32213 7.99546 4.62066 7.77425 5.00265C7.55305 5.38463 7.4637 5.82883 7.52001 6.26666C7.54088 6.43636 7.52282 6.60858 7.46718 6.77025C7.41155 6.93191 7.31982 7.07877 7.19895 7.19967C7.07808 7.32057 6.93125 7.41233 6.76962 7.46797C6.60799 7.52361 6.43581 7.54168 6.26615 7.52081C5.82842 7.46449 5.38432 7.55385 5.00242 7.77511C4.62052 7.99637 4.32205 8.33721 4.1531 8.74502C3.98414 9.15283 3.9541 9.60493 4.06759 10.0315C4.18109 10.4581 4.43182 10.8355 4.78108 11.1054C4.91678 11.2105 5.02662 11.3453 5.10219 11.4995C5.17776 11.6537 5.21705 11.8231 5.21705 11.9948C5.21705 12.1665 5.17776 12.3359 5.10219 12.4901C5.02662 12.6443 4.91678 12.7791 4.78108 12.8843C4.43182 13.1542 4.18109 13.5315 4.06759 13.9581C3.9541 14.3847 3.98414 14.8368 4.1531 15.2446C4.32205 15.6524 4.62052 15.9933 5.00242 16.2145C5.38432 16.4358 5.82842 16.5251 6.26615 16.4688C6.43581 16.4479 6.60799 16.466 6.76962 16.5217C6.93125 16.5773 7.07808 16.6691 7.19895 16.79C7.31982 16.9109 7.41155 17.0577 7.46718 17.2194C7.52282 17.3811 7.54088 17.5533 7.52001 17.723C7.4549 18.1621 7.5403 18.6103 7.76232 18.9947C7.98434 19.3791 8.3299 19.677 8.74275 19.8399C8.99536 19.9437 9.26554 19.9981 9.53864 20C9.84311 19.999 10.1431 19.9269 10.4148 19.7894C10.6866 19.652 10.9224 19.453 11.1037 19.2084C11.2131 19.0791 11.3493 18.9753 11.5029 18.904C11.6565 18.8328 11.8237 18.7959 11.993 18.7959C12.1623 18.7959 12.3295 18.8328 12.4831 18.904C12.6367 18.9753 12.7729 19.0791 12.8823 19.2084C13.1521 19.5577 13.5294 19.8085 13.9558 19.922C14.3823 20.0355 14.8343 20.0055 15.2421 19.8365C15.6498 19.6675 15.9905 19.369 16.2117 18.987C16.433 18.605 16.5223 18.1608 16.466 17.723C16.4451 17.5533 16.4632 17.3811 16.5188 17.2194C16.5745 17.0577 16.6662 16.9109 16.7871 16.79C16.9079 16.6691 17.0548 16.5773 17.2164 16.5217C17.378 16.466 17.5502 16.4479 17.7199 16.4688C18.1584 16.5299 18.6048 16.4428 18.9883 16.2212C19.3717 15.9996 19.6701 15.6564 19.8363 15.2458C20.0139 14.8388 20.0481 14.3836 19.9334 13.9546C19.8187 13.5256 19.5619 13.1483 19.2049 12.8843ZM19.0137 14.9034C18.9231 15.1336 18.7575 15.3264 18.5436 15.4507C18.3298 15.575 18.0803 15.6235 17.8355 15.5883C17.5307 15.549 17.221 15.5802 16.9302 15.6794C16.6393 15.7786 16.3751 15.9432 16.1578 16.1606C15.9405 16.3779 15.776 16.6422 15.6768 16.9331C15.5776 17.224 15.5464 17.5338 15.5856 17.8386C15.6178 18.0833 15.5684 18.3319 15.4449 18.5456C15.3214 18.7594 15.1308 18.9263 14.9027 19.0206C14.6747 19.1149 14.4218 19.1313 14.1835 19.0671C13.9452 19.0029 13.7347 18.8619 13.5848 18.6658C13.3899 18.4331 13.1464 18.2459 12.8713 18.1175C12.5963 17.9891 12.2965 17.9225 11.993 17.9225C11.6895 17.9225 11.3897 17.9891 11.1147 18.1175C10.8396 18.2459 10.5961 18.4331 10.4012 18.6658C10.2513 18.8619 10.0408 19.0029 9.80248 19.0671C9.56417 19.1313 9.31134 19.1149 9.08326 19.0206C8.85517 18.9263 8.6646 18.7594 8.54112 18.5456C8.41764 18.3319 8.36816 18.0833 8.40038 17.8386C8.43974 17.5543 8.41778 17.2649 8.33598 16.9898C8.25418 16.7147 8.11443 16.4603 7.92613 16.2437C7.73784 16.0272 7.50537 15.8535 7.24435 15.7343C6.98333 15.6151 6.69981 15.5531 6.41288 15.5527C6.32556 15.546 6.23786 15.546 6.15054 15.5527C5.90564 15.5887 5.65576 15.5406 5.44174 15.4162C5.22771 15.2918 5.06221 15.0985 4.97227 14.8678C4.86617 14.6393 4.8432 14.3809 4.90734 14.1373C4.97148 13.8937 5.11869 13.6802 5.32353 13.5336C5.56711 13.3458 5.76435 13.1046 5.90007 12.8286C6.03579 12.5526 6.10637 12.2491 6.10637 11.9414C6.10637 11.6338 6.03579 11.3303 5.90007 11.0543C5.76435 10.7783 5.56711 10.5371 5.32353 10.3493C5.1275 10.1993 4.98647 9.98881 4.92232 9.75043C4.85818 9.51206 4.87451 9.25918 4.96879 9.03104C5.06306 8.80291 5.23 8.61229 5.44369 8.48878C5.65738 8.36527 5.90586 8.31579 6.15054 8.34801C6.45514 8.38634 6.76446 8.35452 7.05487 8.25498C7.34529 8.15544 7.60911 7.99082 7.82619 7.77369C8.04327 7.55657 8.20785 7.29268 8.30737 7.0022C8.40688 6.71172 8.4387 6.40233 8.40038 6.09766C8.38221 5.85769 8.44174 5.61824 8.57018 5.41474C8.69862 5.21124 8.88914 5.0545 9.11356 4.96771C9.33797 4.88092 9.58435 4.86868 9.81626 4.93282C10.0482 4.99695 10.2533 5.13405 10.4012 5.32383C10.5961 5.55655 10.8396 5.74371 11.1147 5.87212C11.3897 6.00054 11.6895 6.06709 11.993 6.06709C12.2965 6.06709 12.5963 6.00054 12.8713 5.87212C13.1464 5.74371 13.3899 5.55655 13.5848 5.32383C13.7347 5.12776 13.9452 4.98669 14.1835 4.92253C14.4218 4.85837 14.6747 4.87471 14.9027 4.96901C15.1308 5.0633 15.3214 5.23028 15.4449 5.44402C15.5684 5.65775 15.6178 5.90629 15.5856 6.15103C15.5473 6.45569 15.5791 6.76508 15.6786 7.05557C15.7782 7.34605 15.9427 7.60993 16.1598 7.82706C16.3769 8.04419 16.6407 8.20881 16.9311 8.30834C17.2215 8.40788 17.5309 8.4397 17.8355 8.40138C18.0801 8.36916 18.3286 8.41864 18.5423 8.54215C18.756 8.66565 18.9229 8.85628 19.0172 9.08441C19.1115 9.31255 19.1278 9.56543 19.0637 9.8038C18.9995 10.0422 18.8585 10.2527 18.6625 10.4027C18.4189 10.5905 18.2217 10.8317 18.0859 11.1077C17.9502 11.3837 17.8796 11.6872 17.8796 11.9948C17.8796 12.3024 17.9502 12.6059 18.0859 12.882C18.2217 13.158 18.4189 13.3992 18.6625 13.587C18.8632 13.7327 19.0077 13.9431 19.0716 14.1828C19.1356 14.4225 19.1152 14.677 19.0137 14.9034Z"/>
</mask>
<path d="M19.2049 12.8843C19.0692 12.7791 18.9594 12.6443 18.8838 12.4901C18.8082 12.3359 18.769 12.1665 18.769 11.9948C18.769 11.8231 18.8082 11.6537 18.8838 11.4995C18.9594 11.3453 19.0692 11.2105 19.2049 11.1054C19.5542 10.8355 19.8049 10.4581 19.9184 10.0315C20.0319 9.60493 20.0019 9.15283 19.8329 8.74502C19.6639 8.33721 19.3655 7.99637 18.9836 7.77511C18.6017 7.55385 18.1576 7.46449 17.7199 7.52081C17.5502 7.54168 17.378 7.52361 17.2164 7.46797C17.0548 7.41233 16.9079 7.32057 16.7871 7.19967C16.6662 7.07877 16.5745 6.93191 16.5188 6.77025C16.4632 6.60858 16.4451 6.43636 16.466 6.26666C16.5223 5.82883 16.433 5.38463 16.2117 5.00265C15.9905 4.62066 15.6498 4.32213 15.2421 4.15313C14.8343 3.98414 14.3823 3.95409 13.9558 4.06761C13.5294 4.18113 13.1521 4.43192 12.8823 4.78126C12.7729 4.91051 12.6367 5.01438 12.4831 5.08562C12.3295 5.15686 12.1623 5.19377 11.993 5.19377C11.8237 5.19377 11.6565 5.15686 11.5029 5.08562C11.3493 5.01438 11.2131 4.91051 11.1037 4.78126C10.8339 4.43192 10.4566 4.18113 10.0302 4.06761C9.60366 3.95409 9.15166 3.98414 8.74394 4.15313C8.33623 4.32213 7.99546 4.62066 7.77425 5.00265C7.55305 5.38463 7.4637 5.82883 7.52001 6.26666C7.54088 6.43636 7.52282 6.60858 7.46718 6.77025C7.41155 6.93191 7.31982 7.07877 7.19895 7.19967C7.07808 7.32057 6.93125 7.41233 6.76962 7.46797C6.60799 7.52361 6.43581 7.54168 6.26615 7.52081C5.82842 7.46449 5.38432 7.55385 5.00242 7.77511C4.62052 7.99637 4.32205 8.33721 4.1531 8.74502C3.98414 9.15283 3.9541 9.60493 4.06759 10.0315C4.18109 10.4581 4.43182 10.8355 4.78108 11.1054C4.91678 11.2105 5.02662 11.3453 5.10219 11.4995C5.17776 11.6537 5.21705 11.8231 5.21705 11.9948C5.21705 12.1665 5.17776 12.3359 5.10219 12.4901C5.02662 12.6443 4.91678 12.7791 4.78108 12.8843C4.43182 13.1542 4.18109 13.5315 4.06759 13.9581C3.9541 14.3847 3.98414 14.8368 4.1531 15.2446C4.32205 15.6524 4.62052 15.9933 5.00242 16.2145C5.38432 16.4358 5.82842 16.5251 6.26615 16.4688C6.43581 16.4479 6.60799 16.466 6.76962 16.5217C6.93125 16.5773 7.07808 16.6691 7.19895 16.79C7.31982 16.9109 7.41155 17.0577 7.46718 17.2194C7.52282 17.3811 7.54088 17.5533 7.52001 17.723C7.4549 18.1621 7.5403 18.6103 7.76232 18.9947C7.98434 19.3791 8.3299 19.677 8.74275 19.8399C8.99536 19.9437 9.26554 19.9981 9.53864 20C9.84311 19.999 10.1431 19.9269 10.4148 19.7894C10.6866 19.652 10.9224 19.453 11.1037 19.2084C11.2131 19.0791 11.3493 18.9753 11.5029 18.904C11.6565 18.8328 11.8237 18.7959 11.993 18.7959C12.1623 18.7959 12.3295 18.8328 12.4831 18.904C12.6367 18.9753 12.7729 19.0791 12.8823 19.2084C13.1521 19.5577 13.5294 19.8085 13.9558 19.922C14.3823 20.0355 14.8343 20.0055 15.2421 19.8365C15.6498 19.6675 15.9905 19.369 16.2117 18.987C16.433 18.605 16.5223 18.1608 16.466 17.723C16.4451 17.5533 16.4632 17.3811 16.5188 17.2194C16.5745 17.0577 16.6662 16.9109 16.7871 16.79C16.9079 16.6691 17.0548 16.5773 17.2164 16.5217C17.378 16.466 17.5502 16.4479 17.7199 16.4688C18.1584 16.5299 18.6048 16.4428 18.9883 16.2212C19.3717 15.9996 19.6701 15.6564 19.8363 15.2458C20.0139 14.8388 20.0481 14.3836 19.9334 13.9546C19.8187 13.5256 19.5619 13.1483 19.2049 12.8843ZM19.0137 14.9034C18.9231 15.1336 18.7575 15.3264 18.5436 15.4507C18.3298 15.575 18.0803 15.6235 17.8355 15.5883C17.5307 15.549 17.221 15.5802 16.9302 15.6794C16.6393 15.7786 16.3751 15.9432 16.1578 16.1606C15.9405 16.3779 15.776 16.6422 15.6768 16.9331C15.5776 17.224 15.5464 17.5338 15.5856 17.8386C15.6178 18.0833 15.5684 18.3319 15.4449 18.5456C15.3214 18.7594 15.1308 18.9263 14.9027 19.0206C14.6747 19.1149 14.4218 19.1313 14.1835 19.0671C13.9452 19.0029 13.7347 18.8619 13.5848 18.6658C13.3899 18.4331 13.1464 18.2459 12.8713 18.1175C12.5963 17.9891 12.2965 17.9225 11.993 17.9225C11.6895 17.9225 11.3897 17.9891 11.1147 18.1175C10.8396 18.2459 10.5961 18.4331 10.4012 18.6658C10.2513 18.8619 10.0408 19.0029 9.80248 19.0671C9.56417 19.1313 9.31134 19.1149 9.08326 19.0206C8.85517 18.9263 8.6646 18.7594 8.54112 18.5456C8.41764 18.3319 8.36816 18.0833 8.40038 17.8386C8.43974 17.5543 8.41778 17.2649 8.33598 16.9898C8.25418 16.7147 8.11443 16.4603 7.92613 16.2437C7.73784 16.0272 7.50537 15.8535 7.24435 15.7343C6.98333 15.6151 6.69981 15.5531 6.41288 15.5527C6.32556 15.546 6.23786 15.546 6.15054 15.5527C5.90564 15.5887 5.65576 15.5406 5.44174 15.4162C5.22771 15.2918 5.06221 15.0985 4.97227 14.8678C4.86617 14.6393 4.8432 14.3809 4.90734 14.1373C4.97148 13.8937 5.11869 13.6802 5.32353 13.5336C5.56711 13.3458 5.76435 13.1046 5.90007 12.8286C6.03579 12.5526 6.10637 12.2491 6.10637 11.9414C6.10637 11.6338 6.03579 11.3303 5.90007 11.0543C5.76435 10.7783 5.56711 10.5371 5.32353 10.3493C5.1275 10.1993 4.98647 9.98881 4.92232 9.75043C4.85818 9.51206 4.87451 9.25918 4.96879 9.03104C5.06306 8.80291 5.23 8.61229 5.44369 8.48878C5.65738 8.36527 5.90586 8.31579 6.15054 8.34801C6.45514 8.38634 6.76446 8.35452 7.05487 8.25498C7.34529 8.15544 7.60911 7.99082 7.82619 7.77369C8.04327 7.55657 8.20785 7.29268 8.30737 7.0022C8.40688 6.71172 8.4387 6.40233 8.40038 6.09766C8.38221 5.85769 8.44174 5.61824 8.57018 5.41474C8.69862 5.21124 8.88914 5.0545 9.11356 4.96771C9.33797 4.88092 9.58435 4.86868 9.81626 4.93282C10.0482 4.99695 10.2533 5.13405 10.4012 5.32383C10.5961 5.55655 10.8396 5.74371 11.1147 5.87212C11.3897 6.00054 11.6895 6.06709 11.993 6.06709C12.2965 6.06709 12.5963 6.00054 12.8713 5.87212C13.1464 5.74371 13.3899 5.55655 13.5848 5.32383C13.7347 5.12776 13.9452 4.98669 14.1835 4.92253C14.4218 4.85837 14.6747 4.87471 14.9027 4.96901C15.1308 5.0633 15.3214 5.23028 15.4449 5.44402C15.5684 5.65775 15.6178 5.90629 15.5856 6.15103C15.5473 6.45569 15.5791 6.76508 15.6786 7.05557C15.7782 7.34605 15.9427 7.60993 16.1598 7.82706C16.3769 8.04419 16.6407 8.20881 16.9311 8.30834C17.2215 8.40788 17.5309 8.4397 17.8355 8.40138C18.0801 8.36916 18.3286 8.41864 18.5423 8.54215C18.756 8.66565 18.9229 8.85628 19.0172 9.08441C19.1115 9.31255 19.1278 9.56543 19.0637 9.8038C18.9995 10.0422 18.8585 10.2527 18.6625 10.4027C18.4189 10.5905 18.2217 10.8317 18.0859 11.1077C17.9502 11.3837 17.8796 11.6872 17.8796 11.9948C17.8796 12.3024 17.9502 12.6059 18.0859 12.882C18.2217 13.158 18.4189 13.3992 18.6625 13.587C18.8632 13.7327 19.0077 13.9431 19.0716 14.1828C19.1356 14.4225 19.1152 14.677 19.0137 14.9034Z" fill="#282A35"/>
<path d="M19.2049 12.8843C19.0692 12.7791 18.9594 12.6443 18.8838 12.4901C18.8082 12.3359 18.769 12.1665 18.769 11.9948C18.769 11.8231 18.8082 11.6537 18.8838 11.4995C18.9594 11.3453 19.0692 11.2105 19.2049 11.1054C19.5542 10.8355 19.8049 10.4581 19.9184 10.0315C20.0319 9.60493 20.0019 9.15283 19.8329 8.74502C19.6639 8.33721 19.3655 7.99637 18.9836 7.77511C18.6017 7.55385 18.1576 7.46449 17.7199 7.52081C17.5502 7.54168 17.378 7.52361 17.2164 7.46797C17.0548 7.41233 16.9079 7.32057 16.7871 7.19967C16.6662 7.07877 16.5745 6.93191 16.5188 6.77025C16.4632 6.60858 16.4451 6.43636 16.466 6.26666C16.5223 5.82883 16.433 5.38463 16.2117 5.00265C15.9905 4.62066 15.6498 4.32213 15.2421 4.15313C14.8343 3.98414 14.3823 3.95409 13.9558 4.06761C13.5294 4.18113 13.1521 4.43192 12.8823 4.78126C12.7729 4.91051 12.6367 5.01438 12.4831 5.08562C12.3295 5.15686 12.1623 5.19377 11.993 5.19377C11.8237 5.19377 11.6565 5.15686 11.5029 5.08562C11.3493 5.01438 11.2131 4.91051 11.1037 4.78126C10.8339 4.43192 10.4566 4.18113 10.0302 4.06761C9.60366 3.95409 9.15166 3.98414 8.74394 4.15313C8.33623 4.32213 7.99546 4.62066 7.77425 5.00265C7.55305 5.38463 7.4637 5.82883 7.52001 6.26666C7.54088 6.43636 7.52282 6.60858 7.46718 6.77025C7.41155 6.93191 7.31982 7.07877 7.19895 7.19967C7.07808 7.32057 6.93125 7.41233 6.76962 7.46797C6.60799 7.52361 6.43581 7.54168 6.26615 7.52081C5.82842 7.46449 5.38432 7.55385 5.00242 7.77511C4.62052 7.99637 4.32205 8.33721 4.1531 8.74502C3.98414 9.15283 3.9541 9.60493 4.06759 10.0315C4.18109 10.4581 4.43182 10.8355 4.78108 11.1054C4.91678 11.2105 5.02662 11.3453 5.10219 11.4995C5.17776 11.6537 5.21705 11.8231 5.21705 11.9948C5.21705 12.1665 5.17776 12.3359 5.10219 12.4901C5.02662 12.6443 4.91678 12.7791 4.78108 12.8843C4.43182 13.1542 4.18109 13.5315 4.06759 13.9581C3.9541 14.3847 3.98414 14.8368 4.1531 15.2446C4.32205 15.6524 4.62052 15.9933 5.00242 16.2145C5.38432 16.4358 5.82842 16.5251 6.26615 16.4688C6.43581 16.4479 6.60799 16.466 6.76962 16.5217C6.93125 16.5773 7.07808 16.6691 7.19895 16.79C7.31982 16.9109 7.41155 17.0577 7.46718 17.2194C7.52282 17.3811 7.54088 17.5533 7.52001 17.723C7.4549 18.1621 7.5403 18.6103 7.76232 18.9947C7.98434 19.3791 8.3299 19.677 8.74275 19.8399C8.99536 19.9437 9.26554 19.9981 9.53864 20C9.84311 19.999 10.1431 19.9269 10.4148 19.7894C10.6866 19.652 10.9224 19.453 11.1037 19.2084C11.2131 19.0791 11.3493 18.9753 11.5029 18.904C11.6565 18.8328 11.8237 18.7959 11.993 18.7959C12.1623 18.7959 12.3295 18.8328 12.4831 18.904C12.6367 18.9753 12.7729 19.0791 12.8823 19.2084C13.1521 19.5577 13.5294 19.8085 13.9558 19.922C14.3823 20.0355 14.8343 20.0055 15.2421 19.8365C15.6498 19.6675 15.9905 19.369 16.2117 18.987C16.433 18.605 16.5223 18.1608 16.466 17.723C16.4451 17.5533 16.4632 17.3811 16.5188 17.2194C16.5745 17.0577 16.6662 16.9109 16.7871 16.79C16.9079 16.6691 17.0548 16.5773 17.2164 16.5217C17.378 16.466 17.5502 16.4479 17.7199 16.4688C18.1584 16.5299 18.6048 16.4428 18.9883 16.2212C19.3717 15.9996 19.6701 15.6564 19.8363 15.2458C20.0139 14.8388 20.0481 14.3836 19.9334 13.9546C19.8187 13.5256 19.5619 13.1483 19.2049 12.8843ZM19.0137 14.9034C18.9231 15.1336 18.7575 15.3264 18.5436 15.4507C18.3298 15.575 18.0803 15.6235 17.8355 15.5883C17.5307 15.549 17.221 15.5802 16.9302 15.6794C16.6393 15.7786 16.3751 15.9432 16.1578 16.1606C15.9405 16.3779 15.776 16.6422 15.6768 16.9331C15.5776 17.224 15.5464 17.5338 15.5856 17.8386C15.6178 18.0833 15.5684 18.3319 15.4449 18.5456C15.3214 18.7594 15.1308 18.9263 14.9027 19.0206C14.6747 19.1149 14.4218 19.1313 14.1835 19.0671C13.9452 19.0029 13.7347 18.8619 13.5848 18.6658C13.3899 18.4331 13.1464 18.2459 12.8713 18.1175C12.5963 17.9891 12.2965 17.9225 11.993 17.9225C11.6895 17.9225 11.3897 17.9891 11.1147 18.1175C10.8396 18.2459 10.5961 18.4331 10.4012 18.6658C10.2513 18.8619 10.0408 19.0029 9.80248 19.0671C9.56417 19.1313 9.31134 19.1149 9.08326 19.0206C8.85517 18.9263 8.6646 18.7594 8.54112 18.5456C8.41764 18.3319 8.36816 18.0833 8.40038 17.8386C8.43974 17.5543 8.41778 17.2649 8.33598 16.9898C8.25418 16.7147 8.11443 16.4603 7.92613 16.2437C7.73784 16.0272 7.50537 15.8535 7.24435 15.7343C6.98333 15.6151 6.69981 15.5531 6.41288 15.5527C6.32556 15.546 6.23786 15.546 6.15054 15.5527C5.90564 15.5887 5.65576 15.5406 5.44174 15.4162C5.22771 15.2918 5.06221 15.0985 4.97227 14.8678C4.86617 14.6393 4.8432 14.3809 4.90734 14.1373C4.97148 13.8937 5.11869 13.6802 5.32353 13.5336C5.56711 13.3458 5.76435 13.1046 5.90007 12.8286C6.03579 12.5526 6.10637 12.2491 6.10637 11.9414C6.10637 11.6338 6.03579 11.3303 5.90007 11.0543C5.76435 10.7783 5.56711 10.5371 5.32353 10.3493C5.1275 10.1993 4.98647 9.98881 4.92232 9.75043C4.85818 9.51206 4.87451 9.25918 4.96879 9.03104C5.06306 8.80291 5.23 8.61229 5.44369 8.48878C5.65738 8.36527 5.90586 8.31579 6.15054 8.34801C6.45514 8.38634 6.76446 8.35452 7.05487 8.25498C7.34529 8.15544 7.60911 7.99082 7.82619 7.77369C8.04327 7.55657 8.20785 7.29268 8.30737 7.0022C8.40688 6.71172 8.4387 6.40233 8.40038 6.09766C8.38221 5.85769 8.44174 5.61824 8.57018 5.41474C8.69862 5.21124 8.88914 5.0545 9.11356 4.96771C9.33797 4.88092 9.58435 4.86868 9.81626 4.93282C10.0482 4.99695 10.2533 5.13405 10.4012 5.32383C10.5961 5.55655 10.8396 5.74371 11.1147 5.87212C11.3897 6.00054 11.6895 6.06709 11.993 6.06709C12.2965 6.06709 12.5963 6.00054 12.8713 5.87212C13.1464 5.74371 13.3899 5.55655 13.5848 5.32383C13.7347 5.12776 13.9452 4.98669 14.1835 4.92253C14.4218 4.85837 14.6747 4.87471 14.9027 4.96901C15.1308 5.0633 15.3214 5.23028 15.4449 5.44402C15.5684 5.65775 15.6178 5.90629 15.5856 6.15103C15.5473 6.45569 15.5791 6.76508 15.6786 7.05557C15.7782 7.34605 15.9427 7.60993 16.1598 7.82706C16.3769 8.04419 16.6407 8.20881 16.9311 8.30834C17.2215 8.40788 17.5309 8.4397 17.8355 8.40138C18.0801 8.36916 18.3286 8.41864 18.5423 8.54215C18.756 8.66565 18.9229 8.85628 19.0172 9.08441C19.1115 9.31255 19.1278 9.56543 19.0637 9.8038C18.9995 10.0422 18.8585 10.2527 18.6625 10.4027C18.4189 10.5905 18.2217 10.8317 18.0859 11.1077C17.9502 11.3837 17.8796 11.6872 17.8796 11.9948C17.8796 12.3024 17.9502 12.6059 18.0859 12.882C18.2217 13.158 18.4189 13.3992 18.6625 13.587C18.8632 13.7327 19.0077 13.9431 19.0716 14.1828C19.1356 14.4225 19.1152 14.677 19.0137 14.9034Z" stroke="#282A35" stroke-width="0.249361" mask="url(#path-2-outside-1_113_510)"/>
</svg>
