<svg width="30" height="30" viewBox="0 0 30 30" fill="none" xmlns="http://www.w3.org/2000/svg">
<path d="M10.0926 17.756C10.1173 17.6382 10.1185 17.5166 10.0963 17.3983C10.074 17.2799 10.0286 17.1671 9.96269 17.0663C9.89679 16.9655 9.81169 16.8787 9.71224 16.8108C9.61278 16.7429 9.50092 16.6953 9.38305 16.6706C8.48369 16.4778 7.64485 16.0688 6.9391 15.4789L7.27187 13.8133H7.55513C7.7641 13.8132 7.97032 13.7656 8.15811 13.6739C8.3459 13.5823 8.51034 13.449 8.63892 13.2843C8.7675 13.1196 8.85685 12.9277 8.90017 12.7233C8.94349 12.5188 8.93966 12.3072 8.88895 12.1045L8.43059 10.2711C8.35619 9.97365 8.18451 9.70961 7.94285 9.52092C7.70118 9.33224 7.40338 9.22974 7.09678 9.2297H5.1396C5.42713 8.37201 5.91428 7.59489 6.56094 6.96233C7.20761 6.32977 7.99528 5.85986 8.85911 5.59132C9.72293 5.32277 10.6382 5.26326 11.5295 5.41769C12.4208 5.57212 13.2627 5.93607 13.9859 6.47957H13.5706C13.264 6.4796 12.9662 6.58211 12.7245 6.77079C12.4829 6.95948 12.3112 7.22352 12.2368 7.52095L11.7784 9.35437C11.7277 9.5571 11.7239 9.76871 11.7672 9.97314C11.8105 10.1776 11.8999 10.3694 12.0284 10.5342C12.157 10.6989 12.3215 10.8321 12.5093 10.9238C12.697 11.0154 12.9033 11.0631 13.1122 11.0631H13.6888L13.9208 12.4556C13.9986 12.9082 14.1754 13.338 14.4387 13.7142C14.4704 13.76 14.5176 13.7927 14.5716 13.8062C14.6255 13.8197 14.6826 13.8131 14.7321 13.7876L14.7596 13.7738C15.113 13.592 15.5075 13.5049 15.9047 13.5209C16.3019 13.537 16.6881 13.6557 17.0257 13.8655C17.0807 13.9002 17.1427 13.9222 17.2073 13.9298C17.2719 13.9374 17.3374 13.9305 17.3989 13.9095C17.4605 13.8884 17.5165 13.8539 17.563 13.8084C17.6094 13.7629 17.6451 13.7075 17.6674 13.6464C18.0444 12.6089 18.1897 11.5014 18.093 10.4018C17.9963 9.30211 17.66 8.23697 17.1077 7.28116C16.5555 6.32535 15.8006 5.50207 14.8962 4.86914C13.9917 4.23622 12.9597 3.80902 11.8725 3.61754C10.7854 3.42607 9.66946 3.47496 8.60322 3.7608C7.53697 4.04664 6.54625 4.56248 5.70064 5.27208C4.85504 5.98169 4.17508 6.86785 3.70852 7.8683C3.24196 8.86875 3.00012 9.95923 3 11.0631C3.00501 12.7975 3.60383 14.4778 4.6968 15.8245C5.78977 17.1712 7.31097 18.1029 9.0072 18.4646C9.2451 18.5146 9.49308 18.468 9.69662 18.3351C9.90016 18.2022 10.0426 17.9939 10.0926 17.756Z" fill="white"/>
<path d="M24.8563 16.6918C24.6834 16.3089 24.3696 16.0075 23.9801 15.8503C23.5906 15.693 23.1555 15.692 22.7653 15.8475L19.7401 17.0529C19.6732 17.0795 19.601 17.0899 19.5294 17.0834C19.4577 17.0769 19.3886 17.0536 19.3276 17.0153L16.5234 15.2598C16.3886 15.1756 16.2343 15.1279 16.0755 15.1213C15.9167 15.1147 15.7589 15.1495 15.6177 15.2223L14.6762 15.7072C14.5344 15.7805 14.4142 15.8895 14.3274 16.0235C14.2407 16.1574 14.1904 16.3118 14.1816 16.4711C14.1728 16.6305 14.2058 16.7894 14.2773 16.9321C14.3487 17.0749 14.4562 17.1964 14.5891 17.2849L15.9394 18.1832C15.9741 18.2064 16.0019 18.2386 16.0196 18.2764C16.0373 18.3142 16.0444 18.3561 16.0401 18.3976C16.0357 18.4392 16.0201 18.4787 15.995 18.512C15.9698 18.5453 15.936 18.5711 15.8973 18.5866L13.9282 19.3731C13.8711 19.3959 13.8101 19.407 13.7487 19.4058C13.6873 19.4045 13.6267 19.3909 13.5707 19.3658L11.7088 18.5343C11.5766 18.4758 11.4325 18.449 11.2881 18.4564C11.1436 18.4637 11.003 18.5048 10.8774 18.5765L9.89373 19.1421C9.75752 19.2205 9.64375 19.3327 9.56337 19.4678C9.48299 19.6028 9.4387 19.7563 9.43474 19.9135C9.43078 20.0706 9.46729 20.2261 9.54077 20.3651C9.61425 20.504 9.72222 20.6217 9.85432 20.7069L13.2067 22.8722C13.3289 22.9507 13.4681 22.999 13.6126 23.0132C13.7572 23.0274 13.903 23.007 14.0382 22.9538L16.528 21.9729C16.5693 21.9566 16.6145 21.9528 16.6581 21.9617C16.7016 21.9707 16.7416 21.9921 16.7732 22.0234C16.8047 22.0547 16.8265 22.0945 16.8359 22.1379C16.8453 22.1814 16.8418 22.2266 16.8259 22.2681L16.0586 24.2601C16.0061 24.3988 15.9881 24.5481 16.006 24.6953C16.0238 24.8425 16.0772 24.9831 16.1614 25.1052C16.2456 25.2272 16.3581 25.327 16.4893 25.396C16.6205 25.465 16.7666 25.5012 16.9148 25.5013C17.0613 25.5019 17.2058 25.4666 17.3356 25.3987L18.2193 24.9403C18.3822 24.8573 18.5161 24.7269 18.6034 24.5663L20.9263 20.3219C20.9747 20.2332 21.0511 20.1629 21.1436 20.1221L24.0276 18.8524C24.2244 18.7657 24.4022 18.6408 24.5505 18.485C24.6989 18.3292 24.8149 18.1455 24.8919 17.9447C24.969 17.7438 25.0055 17.5297 24.9994 17.3147C24.9932 17.0996 24.9446 16.8879 24.8563 16.6918Z" fill="white"/>
</svg>
