<svg width="16" height="16" viewBox="0 0 16 16" fill="none" xmlns="http://www.w3.org/2000/svg">
<path d="M14.5005 6.54524L13.8506 6.05126C13.9351 5.75228 14.0065 5.49879 14.0715 5.2778C14.3315 4.40684 14.4745 3.92587 14.117 3.43189C13.7596 2.93792 13.2721 2.91842 12.3491 2.89242H11.5432C11.4327 2.60644 11.3482 2.35295 11.2702 2.13846C10.9712 1.2805 10.8022 0.838525 10.2172 0.617537C9.63227 0.396548 9.22279 0.708532 8.46883 1.22851L7.81886 1.67698L7.16889 1.24151C6.49943 0.715032 6.00545 0.390048 5.41398 0.585038C4.82251 0.780028 4.66652 1.23501 4.36104 2.09946C4.28304 2.31395 4.19204 2.56744 4.08805 2.85992L3.24959 2.88592C2.33964 2.88592 1.83916 2.91842 1.48168 3.4124C1.1242 3.90637 1.29969 4.38735 1.54668 5.2648C1.61167 5.48579 1.68967 5.73928 1.76767 6.03826L1.1177 6.53224C0.409235 7.07821 -0.000244141 7.38369 -0.000244141 8.00116C-0.000244141 8.61863 0.396236 8.91762 1.1177 9.47009L1.76767 9.96406C1.68967 10.263 1.61167 10.5165 1.54668 10.7375C1.28669 11.6085 1.1437 12.0895 1.50118 12.5834C1.85866 13.0774 2.36564 13.0904 3.26909 13.1164H4.06855C4.17904 13.4024 4.26354 13.6559 4.34154 13.8704C4.64702 14.7283 4.80951 15.1703 5.39448 15.3913C5.97945 15.6123 6.38893 15.3003 7.14289 14.7803L7.79286 14.3318L8.44283 14.7673C8.84371 15.1182 9.33852 15.3442 9.86626 15.4173C9.98345 15.4161 10.0997 15.3963 10.2107 15.3588C10.7957 15.1703 10.9582 14.7088 11.2637 13.8444C11.3417 13.6299 11.4262 13.3764 11.5367 13.0904H12.3426C13.2526 13.0904 13.7531 13.0579 14.1105 12.5574C14.468 12.057 14.3315 11.5825 14.0715 10.7115C14.0065 10.4905 13.9286 10.2371 13.8506 9.93806L14.5005 9.44409C15.2155 8.93062 15.599 8.65113 15.599 8.00116C15.599 7.3512 15.2155 7.09771 14.5005 6.54524Z" fill="#3D87F7"/>
<path d="M6.74017 11.4194C6.6523 11.4157 6.5661 11.3942 6.48677 11.3562C6.40745 11.3182 6.33666 11.2645 6.2787 11.1984L4.36129 9.06001C4.24666 8.93072 4.18808 8.76119 4.19844 8.58871C4.2088 8.41623 4.28725 8.25494 4.41654 8.1403C4.54583 8.02567 4.71536 7.96709 4.88783 7.97745C5.06031 7.98781 5.22161 8.06626 5.33624 8.19555L6.77917 9.82697L10.8935 5.82317C10.9527 5.75609 11.0252 5.70198 11.1064 5.66423C11.1875 5.62647 11.2756 5.60589 11.3651 5.60376C11.4546 5.60163 11.5435 5.61801 11.6264 5.65187C11.7092 5.68572 11.7842 5.73633 11.8466 5.80051C11.909 5.8647 11.9574 5.94107 11.9889 6.02486C12.0204 6.10864 12.0343 6.19803 12.0296 6.28741C12.0249 6.3768 12.0019 6.46426 11.9618 6.54431C11.9218 6.62436 11.8656 6.69528 11.7969 6.75262L7.19515 11.2504C7.071 11.3634 6.90796 11.4239 6.74017 11.4194Z" fill="white"/>
</svg>
